<?xml version="1.0" encoding="UTF-8"?>
<svg xmlns="http://www.w3.org/2000/svg" xmlns:xlink="http://www.w3.org/1999/xlink" viewBox="0 0 60 60" width="60px" height="60px">
<g id="surface3724795">
<path style=" stroke:none;fill-rule:nonzero;fill:rgb(43.921569%,42.745098%,43.529412%);fill-opacity:1;" d="M 22 4 C 19.789062 4 18 5.789062 18 8 L 18 39 C 12.894531 36.402344 10.578125 36 8 36 C 5.007812 36 2.019531 37.15625 2.003906 40.972656 L 11 45 L 17.3125 51.3125 C 20.3125 54.3125 24.386719 56 28.628906 56 L 42 56 C 46.417969 56 50 52.417969 50 48 L 50 28 C 50 25.789062 48.210938 24 46 24 C 44.453125 24.003906 43.046875 24.898438 42.386719 26.296875 C 42.132812 26.125 42 26 42 26 C 42 23.789062 40.210938 22 38 22 C 35.789062 22 34 23.789062 34 26 L 34 24 C 34 21.789062 32.210938 20 30 20 C 27.789062 20 26 21.789062 26 24 L 26 8 C 26 5.789062 24.210938 4 22 4 Z M 2.003906 40.972656 L 2 40.972656 L 2 41 C 2 40.988281 2.003906 40.984375 2.003906 40.972656 Z M 2.003906 40.972656 "/>
</g>
</svg>
