<?xml version="1.0" encoding="UTF-8"?>
<svg xmlns="http://www.w3.org/2000/svg" xmlns:xlink="http://www.w3.org/1999/xlink" viewBox="0 0 90 90" width="90px" height="90px">
<g id="surface4846583">
<path style=" stroke:none;fill-rule:nonzero;fill:rgb(40.392157%,41.568628%,52.941179%);fill-opacity:1;" d="M 45 9 C 25.117188 9 9 25.117188 9 45 C 9 64.882812 25.117188 81 45 81 C 64.882812 81 81 64.882812 81 45 C 81 25.117188 64.882812 9 45 9 Z M 48 48 L 23.984375 48 C 22.335938 48 21 46.664062 21 45.015625 L 21 44.980469 C 21 43.335938 22.335938 42 23.984375 42 L 42 42 L 42 17.984375 C 42 16.335938 43.335938 15 44.984375 15 L 45.019531 15 C 46.664062 15 48 16.335938 48 17.984375 Z M 48 48 "/>
</g>
</svg>
